External Loads File
version=1
nRows=76
nColumns=13
Range=5.000000e-03-10 seconds
endheader
time 	forceRightX 	forceRightY 	forceRightZ 	pointRightX 	pointRightY 	pointRightZ 	forceLeftX 	forceLeftY 	forceLeftZ 	pointLeftX 	pointLeftY 	pointLeftZ 		
0.005000 -324.506245 826.360703 -0.000000 0.360369 0.450120 -0.115920 90.511033 -185.441652 -0.000000 0.159231 0.215999 -0.354961
0.010000 -331.085661 828.918424 -0.000000 0.361079 0.448763 -0.115891 92.725622 -190.592843 -0.000000 0.158273 0.217109 -0.354946
0.015000 -337.438587 831.665642 -0.000000 0.361994 0.447457 -0.116447 94.795731 -195.564573 -0.000000 0.157346 0.218259 -0.354899
0.020000 -346.543563 833.213115 -0.000000 0.362578 0.445735 -0.116261 97.464264 -199.758352 -0.000000 0.156369 0.217845 -0.354977
0.025000 -350.550403 836.592376 -0.000000 0.363175 0.444437 -0.116093 98.911431 -203.899709 -0.000000 0.155397 0.220519 -0.355809
0.030000 -356.173309 838.826517 -0.000000 0.363777 0.442881 -0.116002 100.782494 -207.107804 -0.000000 0.154321 0.221801 -0.355912
0.035000 -361.635186 840.503393 -0.000000 0.364377 0.441395 -0.115919 102.657284 -209.575899 -0.000000 0.153293 0.223106 -0.355987
0.040000 -365.405273 842.192670 -0.000000 0.365723 0.440026 -0.116060 104.142156 -211.543804 -0.000000 0.152224 0.224360 -0.355919
0.045000 -369.523426 842.955642 -0.000000 0.366539 0.438627 -0.116107 105.738589 -212.855210 -0.000000 0.151137 0.225683 -0.355925
0.050000 -373.041868 843.173347 -0.000000 0.367320 0.437172 -0.116115 107.193012 -213.758196 -0.000000 0.150067 0.227035 -0.355880
0.055000 -375.315882 843.166369 -0.000000 0.368333 0.435583 -0.116330 108.307894 -214.509822 -0.000000 0.149065 0.228454 -0.355809
0.060000 -377.191655 842.664248 -0.000000 0.369159 0.433958 -0.116334 109.265279 -215.195431 -0.000000 0.147937 0.229882 -0.355766
0.065000 -378.961352 841.685587 -0.000000 0.369987 0.432399 -0.116330 110.128366 -215.941080 -0.000000 0.146886 0.231336 -0.355600
0.070000 -380.009589 840.673879 -0.000000 0.370885 0.430786 -0.116389 110.736708 -216.933235 -0.000000 0.145773 0.232863 -0.355556
0.075000 -380.599358 839.668963 -0.000000 0.371743 0.429160 -0.116429 111.136701 -218.182018 -0.000000 0.144480 0.234446 -0.356233
0.080000 -381.433187 838.485639 -0.000000 0.372469 0.427438 -0.116354 111.470408 -219.580005 -0.000000 0.143350 0.236075 -0.356226
0.085000 -382.154335 837.393440 -0.000000 0.373371 0.425680 -0.116393 111.603328 -221.113357 -0.000000 0.142340 0.237718 -0.356237
0.090000 -382.980648 836.380107 -0.000000 0.374221 0.423940 -0.116423 111.558834 -222.675994 -0.000000 0.141219 0.239366 -0.356120
0.095000 -383.608595 835.648660 -0.000000 0.375099 0.422077 -0.116457 111.230503 -224.245977 -0.000000 0.140099 0.241095 -0.356016
0.100000 -384.356875 835.088641 -0.000000 0.375948 0.420155 -0.116538 110.698674 -225.738033 -0.000000 0.138969 0.242902 -0.355969
0.105000 -385.156698 834.741959 -0.000000 0.376841 0.418118 -0.116534 109.987046 -227.120626 -0.000000 0.137837 0.244726 -0.355881
0.110000 -386.080151 834.567766 -0.000000 0.377683 0.416076 -0.116528 109.205640 -228.331407 -0.000000 0.136608 0.246617 -0.355959
0.115000 -387.451553 834.394504 -0.000000 0.378557 0.414059 -0.116549 108.549502 -229.265768 -0.000000 0.135538 0.248534 -0.355862
0.120000 -388.401785 834.595470 -0.000000 0.379317 0.411891 -0.116552 107.869717 -229.975835 -0.000000 0.134306 0.250501 -0.355893
0.125000 -389.537083 834.851485 -0.000000 0.379997 0.409718 -0.116494 107.396467 -230.334074 -0.000000 0.133212 0.252545 -0.355846
0.130000 -390.533116 835.280970 -0.000000 0.380745 0.407495 -0.116505 107.078668 -230.358589 -0.000000 0.132084 0.254544 -0.355844
0.135000 -391.260358 835.948289 -0.000000 0.381517 0.405259 -0.116466 106.894416 -230.079436 -0.000000 0.130954 0.256645 -0.355897
0.140000 -391.936936 836.802372 -0.000000 0.382164 0.402885 -0.116464 106.889014 -229.516869 -0.000000 0.129842 0.258761 -0.355965
0.145000 -392.411258 837.995755 -0.000000 0.382901 0.400519 -0.116376 106.968843 -228.750301 -0.000000 0.128634 0.260954 -0.355957
0.150000 -393.518531 839.225638 -0.000000 0.383526 0.398162 -0.116297 107.282140 -227.725008 -0.000000 0.127585 0.263205 -0.355943
0.155000 -394.424102 840.949537 -0.000000 0.384319 0.395655 -0.116374 107.530613 -226.581055 -0.000000 0.126518 0.265472 -0.355953
0.160000 -395.601440 842.964942 -0.000000 0.384952 0.393063 -0.116303 107.802475 -225.263982 -0.000000 0.125433 0.267818 -0.356022
0.165000 -397.284516 845.128689 -0.000000 0.385521 0.390466 -0.116224 108.147118 -223.721292 -0.000000 0.124361 0.270177 -0.356032
0.170000 -398.783987 847.678269 -0.000000 0.386246 0.387798 -0.116169 108.405580 -221.997912 -0.000000 0.123356 0.272623 -0.356041
0.175000 -400.336424 850.369246 -0.000000 0.386831 0.385116 -0.116104 108.701421 -220.005532 -0.000000 0.122309 0.275149 -0.356040
0.180000 -401.597960 853.221830 -0.000000 0.387410 0.382344 -0.116040 109.016775 -217.720123 -0.000000 0.121336 0.277728 -0.356099
0.185000 -402.974090 855.935592 -0.000000 0.387907 0.379616 -0.115986 109.514662 -215.035258 -0.000000 0.120320 0.280262 -0.356013
0.190000 -403.499880 858.884293 -0.000000 0.388409 0.376802 -0.115912 109.991977 -212.077381 -0.000000 0.119406 0.282915 -0.356118
0.195000 -403.377215 861.908389 -0.000000 0.388837 0.373943 -0.115902 110.524378 -208.907983 -0.000000 0.118485 0.285573 -0.356162
0.200000 -402.834461 864.873158 -0.000000 0.389281 0.371186 -0.115829 111.175472 -205.648403 -0.000000 0.117618 0.288242 -0.356156
0.205000 -399.834595 868.750681 -0.000000 0.389689 0.367958 -0.115667 111.470716 -202.730395 -0.000000 0.116850 0.291037 -0.356256
0.210000 -396.650987 872.546581 -0.000000 0.390058 0.364969 -0.115584 111.955929 -200.021238 -0.000000 0.116000 0.293833 -0.356299
0.215000 -393.294067 876.331235 -0.000000 0.390415 0.362162 -0.115517 112.611280 -197.656552 -0.000000 0.115278 0.296622 -0.356255
0.220000 -387.181512 881.312295 -0.000000 0.390838 0.358841 -0.115978 112.806231 -196.075385 -0.000000 0.114587 0.299519 -0.356429
0.225000 -380.991871 886.353085 -0.000000 0.391095 0.355763 -0.116044 113.073476 -195.003929 -0.000000 0.113901 0.302481 -0.356487
0.230000 -373.926158 891.896502 -0.000000 0.391366 0.352524 -0.116115 113.165919 -194.571797 -0.000000 0.113342 0.305409 -0.356582
0.235000 -366.294228 897.889091 -0.000000 0.391599 0.349325 -0.116153 113.088613 -194.717218 -0.000000 0.112751 0.308465 -0.356570
0.240000 -358.390829 904.244177 -0.000000 0.391804 0.346097 -0.116087 112.836633 -195.315787 -0.000000 0.112200 0.311573 -0.356658
0.245000 -350.903264 910.661226 -0.000000 0.391977 0.342918 -0.116025 112.500162 -196.120113 -0.000000 0.111821 0.314663 -0.356761
0.250000 -342.579125 917.524406 -0.000000 0.392121 0.339492 -0.116028 111.778525 -197.066162 -0.000000 0.111401 0.317813 -0.356862
0.255000 -334.126841 924.406840 -0.000000 0.392283 0.336067 -0.116030 110.813632 -197.827362 -0.000000 0.111072 0.321066 -0.356895
0.260000 -326.432421 930.846206 -0.000000 0.392270 0.332770 -0.116061 109.801093 -198.075628 -0.000000 0.110801 0.324274 -0.357016
0.265000 -318.567885 937.054997 -0.000000 0.392374 0.329478 -0.115994 108.589894 -197.742234 -0.000000 0.110640 0.327576 -0.357002
0.270000 -310.519198 942.934733 -0.000000 0.392438 0.326117 -0.115908 107.285741 -196.726068 -0.000000 0.110476 0.330876 -0.357080
0.275000 -302.291477 948.412723 -0.000000 0.392445 0.322734 -0.115739 106.029482 -195.040943 -0.000000 0.110349 0.334187 -0.357100
0.280000 -293.823766 953.461248 -0.000000 0.392431 0.319385 -0.115654 104.926083 -192.827703 -0.000000 0.110384 0.337555 -0.357214
0.285000 -284.882760 958.104105 -0.000000 0.392422 0.315993 -0.115586 104.000442 -190.312950 -0.000000 0.110460 0.340969 -0.357305
0.290000 -275.808594 962.181706 -0.000000 0.392345 0.312613 -0.115486 103.347139 -187.652453 -0.000000 0.110537 0.344392 -0.357325
0.295000 -266.316227 965.727090 -0.000000 0.392195 0.309191 -0.115342 102.887826 -185.013260 -0.000000 0.110696 0.347868 -0.357430
0.300000 -256.834938 968.605553 -0.000000 0.392068 0.305751 -0.115269 102.629551 -182.423443 -0.000000 0.111003 0.351334 -0.357478
0.305000 -247.565474 970.819425 -0.000000 0.391885 0.302316 -0.115126 102.490117 -179.893556 -0.000000 0.111326 0.354825 -0.357600
0.310000 -238.659262 972.459969 -0.000000 0.391646 0.298942 -0.114962 102.363452 -177.419026 -0.000000 0.111754 0.358381 -0.357607
0.315000 -229.951100 973.740258 -0.000000 0.391398 0.295445 -0.114793 102.105301 -175.019228 -0.000000 0.112225 0.361908 -0.357697
0.320000 -220.595632 975.006830 -0.000000 0.391117 0.292078 -0.114688 101.490782 -172.776963 -0.000000 0.112782 0.365886 -0.357703
0.325000 -212.771524 975.858814 -0.000000 0.390800 0.288625 -0.114539 100.858338 -170.456131 -0.000000 0.113478 0.369413 -0.357860
0.330000 -205.003223 976.681314 -0.000000 0.390480 0.285163 -0.114228 99.910170 -168.201512 -0.000000 0.114228 0.373032 -0.357978
0.335000 -197.402790 977.471230 -0.000000 0.390091 0.281643 -0.113976 98.656477 -165.982747 -0.000000 0.115053 0.376633 -0.357958
0.340000 -191.039072 978.047324 -0.000000 0.389543 0.278555 -0.114165 97.296831 -163.656594 -0.000000 0.116020 0.380309 -0.358141
0.345000 -184.163701 978.791092 -0.000000 0.389010 0.275093 -0.113560 95.578535 -161.357906 -0.000000 0.117067 0.383885 -0.358188
0.350000 -177.516080 979.568977 -0.000000 0.388381 0.271600 -0.112928 93.672112 -158.993583 -0.000000 0.118166 0.387420 -0.358237
0.355000 -170.470526 980.470632 -0.000000 0.387790 0.268089 -0.114238 91.500431 -156.627778 -0.000000 0.119366 0.391157 -0.358231
0.360000 -164.112951 981.256967 -0.000000 0.387040 0.264709 -0.114203 89.239073 -154.163321 -0.000000 0.120673 0.394722 -0.358380
0.365000 -156.747562 982.173888 -0.000000 0.386191 0.261172 -0.114073 86.618848 -151.747856 -0.000000 0.122040 0.398405 -0.358405
0.370000 -149.812839 982.959733 -0.000000 0.385258 0.257831 -0.114018 83.868527 -149.232738 -0.000000 0.123606 0.401961 -0.358561
0.375000 -143.122577 983.620408 -0.000000 0.384212 0.254356 -0.113965 80.963829 -146.610009 -0.000000 0.124656 0.405493 -0.357757
0.380000 -134.886603 984.330945 -0.000000 0.383138 0.250818 -0.113944 77.666337 -143.998592 -0.000000 0.126300 0.409072 -0.357788
